<svg xmlns="http://www.w3.org/2000/svg" viewBox="0 0 800.58 965.19"><defs><style>.cls-1{fill:#595959;fill-rule:evenodd;}.cls-2,.cls-3,.cls-4,.cls-5,.cls-6{fill:none;}.cls-2,.cls-3,.cls-6{stroke:#fff;}.cls-2,.cls-4,.cls-6{stroke-miterlimit:8;}.cls-2,.cls-3{stroke-width:50px;}.cls-3,.cls-5{stroke-linecap:round;stroke-linejoin:round;}.cls-4,.cls-5{stroke:#595959;}.cls-4{stroke-width:85px;}.cls-5{stroke-width:90px;}.cls-6{stroke-width:70px;}</style></defs><g id="圖層_2" data-name="圖層 2"><g id="STATIC"><path class="cls-1" d="M118.09,848.1C-38,692-38,438.83,118.09,282.7L400.79,0q141.34,141.35,282.7,282.7c156.13,156.13,156.13,409.26,0,565.4s-409.27,156.12-565.4,0Z"/><path class="cls-2" d="M193.44,429.3a79.85,79.85,0,1,1,79.85,79.84,79.85,79.85,0,0,1-79.85-79.84Z"/><path class="cls-2" d="M434.89,670.94a80,80,0,1,1,80,80,80,80,0,0,1-80-80Z"/><line class="cls-3" x1="576.76" y1="367.79" x2="211.78" y2="732.77"/><g id="temperature_STATIC"><path class="cls-4" d="M52.58,839.82a34.43,34.43,0,1,1,0,48.69,34.43,34.43,0,0,1,0-48.69Z"/><line class="cls-5" x1="707.19" y1="233.9" x2="76.93" y2="864.16"/><path class="cls-6" d="M62,849.21a21.14,21.14,0,1,1,0,29.9,21.15,21.15,0,0,1,0-29.9Z"/><line class="cls-3" x1="707.19" y1="233.9" x2="76.93" y2="864.16"/></g></g></g></svg>